<svg xmlns="http://www.w3.org/2000/svg" viewBox="0 0 32 32">
  <ellipse cx="16" cy="28.5" rx="12.5" ry="2" fill="#F0E2A8"/>
  <path d="M6.5 26.5V19a2 2 0 0 1 2-2h15a2 2 0 0 1 2 2v7.5a2 2 0 0 1-2 2h-15a2 2 0 0 1-2-2Z" fill="#B23A5C"/>
  <path d="M6.5 19a2 2 0 0 1 2-2h15a2 2 0 0 1 2 2v2h-19Z" fill="#952F4C"/>
  <path d="M9 22.5c1.4 1.6 3.6 1.6 5 0s3.6-1.6 5 0 3.6 1.6 5 0" stroke="#E8B44A" stroke-width="1.6" stroke-linecap="round" fill="none"/>
  <path d="M7 17c-.9 0-1.6-.8-1.4-1.7l1.1-4.6a2 2 0 0 1 1.9-1.5h14.8a2 2 0 0 1 1.9 1.5l1.1 4.6c.2.9-.5 1.7-1.4 1.7Z" fill="#FFFDF5"/>
  <circle cx="16" cy="9.6" r="2.3" fill="#B23A5C"/>
</svg>
